<svg width="24" height="22" viewBox="0 0 24 22" fill="none" xmlns="http://www.w3.org/2000/svg">
<path d="M21.174 3.45183C20.6632 2.94083 20.0568 2.53548 19.3893 2.25891C18.7219 1.98235 18.0065 1.84 17.284 1.84C16.5615 1.84 15.8461 1.98235 15.1786 2.25891C14.5112 2.53548 13.9047 2.94083 13.394 3.45183L12.334 4.51183L11.274 3.45183C10.2423 2.42014 8.84301 1.84054 7.38398 1.84054C5.92495 1.84054 4.52567 2.42014 3.49398 3.45183C2.46229 4.48352 1.88269 5.8828 1.88269 7.34183C1.88269 8.80086 2.46229 10.2001 3.49398 11.2318L4.55398 12.2918L12.334 20.0718L20.114 12.2918L21.174 11.2318C21.685 10.7211 22.0903 10.1146 22.3669 9.44718C22.6435 8.77973 22.7858 8.06432 22.7858 7.34183C22.7858 6.61934 22.6435 5.90393 22.3669 5.23647C22.0903 4.56902 21.685 3.96259 21.174 3.45183V3.45183Z" stroke="black" stroke-width="2" stroke-linecap="round" stroke-linejoin="round"/>
</svg>
